<?xml version="1.0" encoding="iso-8859-1"?>
<!-- Generator: Adobe Illustrator 16.0.0, SVG Export Plug-In . SVG Version: 6.00 Build 0)  -->
<!DOCTYPE svg PUBLIC "-//W3C//DTD SVG 1.1//EN" "http://www.w3.org/Graphics/SVG/1.1/DTD/svg11.dtd">
<svg version="1.1" id="Layer_1" xmlns="http://www.w3.org/2000/svg" xmlns:xlink="http://www.w3.org/1999/xlink" x="0px" y="0px"
	 width="501.902px" height="150px" viewBox="0 0 501.902 150" style="enable-background:new 0 0 501.902 150;" xml:space="preserve"
	>
<g>
	<path style="fill:#472F90;" d="M109.275,10.225v98.308h-19.24v-63.76L62.311,90.381l-2.26,0.079L32.454,45.014v63.519H13.073
		V10.225h19.943l28.189,46.42l28.046-46.42H109.275z"/>
	<path style="fill:#472F90;" d="M137.782,80.866c2.434,8.801,9.034,13.201,19.804,13.201c6.926,0,12.17-2.339,15.729-7.022
		l14.605,8.426c-6.93,10.02-17.133,15.027-30.615,15.027c-11.611,0-20.927-3.511-27.949-10.533s-10.533-15.87-10.533-26.543
		c0-10.579,3.462-19.403,10.393-26.473c6.927-7.068,15.821-10.604,26.685-10.604c10.297,0,18.795,3.56,25.488,10.674
		c6.693,7.116,10.043,15.918,10.043,26.403c0,2.341-0.234,4.823-0.703,7.443H137.782z M137.501,66.822h35.813
		c-1.031-4.775-3.16-8.332-6.391-10.673c-3.23-2.339-6.904-3.511-11.023-3.511c-4.869,0-8.896,1.242-12.079,3.722
		C140.637,58.841,138.531,62.328,137.501,66.822z"/>
	<path style="fill:#472F90;" d="M238.898,36.346c7.676,0,14.021,2.576,19.031,7.725c5.006,5.15,7.514,12.267,7.514,21.347v43.115
		h-18.117V67.665c0-4.681-1.264-8.262-3.793-10.744c-2.527-2.479-5.898-3.722-10.111-3.722c-4.684,0-8.426,1.453-11.234,4.354
		c-2.809,2.903-4.215,7.257-4.215,13.061v37.919h-18.115v-70.22h18.115v7.865C222.373,39.625,229.35,36.346,238.898,36.346z"/>
	<path style="fill:#472F90;" d="M320.918,38.312h19.381l-25.602,70.334c-3.652,10.026-8.492,17.312-14.523,21.858
		c-6.031,4.545-13.537,6.583-22.512,6.116v-16.853c4.867,0.092,8.729-0.937,11.586-3.09c2.855-2.155,5.127-5.618,6.812-10.393
		L267.27,38.312h19.803l18.311,47.197L320.918,38.312z"/>
	<path style="fill:#472F90;" d="M401.672,99.755c-7.211,7.162-16.01,10.744-26.402,10.744s-19.17-3.582-26.334-10.744
		c-7.162-7.163-10.742-15.94-10.742-26.333s3.58-19.17,10.742-26.333c7.164-7.163,15.941-10.744,26.334-10.744
		s19.191,3.582,26.402,10.744c7.209,7.162,10.814,15.94,10.814,26.333S408.881,92.593,401.672,99.755z M361.717,87.326
		c3.604,3.651,8.121,5.477,13.553,5.477c5.428,0,9.971-1.826,13.621-5.477c3.652-3.651,5.479-8.286,5.479-13.903
		c0-5.618-1.826-10.252-5.479-13.904c-3.65-3.651-8.193-5.477-13.621-5.477c-5.432,0-9.949,1.826-13.553,5.477
		c-3.605,3.651-5.408,8.286-5.408,13.904C356.309,79.04,358.111,83.675,361.717,87.326z"/>
	<path style="fill:#472F90;" d="M480.879,99.755c-7.211,7.162-16.01,10.744-26.402,10.744s-19.17-3.582-26.334-10.744
		c-7.162-7.163-10.742-15.94-10.742-26.333s3.58-19.17,10.742-26.333c7.164-7.163,15.941-10.744,26.334-10.744
		s19.191,3.582,26.402,10.744c7.209,7.162,10.814,15.94,10.814,26.333S488.088,92.593,480.879,99.755z M440.924,87.326
		c3.604,3.651,8.121,5.477,13.553,5.477c5.428,0,9.971-1.826,13.621-5.477c3.652-3.651,5.479-8.286,5.479-13.903
		c0-5.618-1.826-10.252-5.479-13.904c-3.65-3.651-8.193-5.477-13.621-5.477c-5.432,0-9.949,1.826-13.553,5.477
		c-3.605,3.651-5.408,8.286-5.408,13.904C435.516,79.04,437.318,83.675,440.924,87.326z"/>
</g>
</svg>
